<?xml version="1.0" standalone="no"?>
<!DOCTYPE svg PUBLIC "-//W3C//DTD SVG 20010904//EN"
 "http://www.w3.org/TR/2001/REC-SVG-20010904/DTD/svg10.dtd">
<svg version="1.0" xmlns="http://www.w3.org/2000/svg"
 width="544.000000pt" height="544.000000pt" viewBox="0 0 544.000000 544.000000"
 preserveAspectRatio="xMidYMid meet">
<metadata>
Created by potrace 1.14, written by Peter Selinger 2001-2017
</metadata>
<g transform="translate(0.000000,544.000000) scale(0.100000,-0.100000)"
fill="#000000" stroke="none">
<path d="M2670 5373 c-54 -15 -112 -50 -135 -83 -32 -46 -42 -83 -50 -180 -11
-143 -14 -175 -21 -250 -3 -41 -8 -97 -9 -125 -2 -27 -6 -84 -10 -125 -3 -41
-8 -100 -11 -130 -2 -30 -6 -80 -9 -110 -2 -30 -7 -86 -10 -124 -3 -38 -12
-83 -19 -100 -33 -79 -117 -136 -201 -136 -87 0 -122 25 -280 204 -39 44 -79
89 -90 101 -11 11 -58 63 -105 115 -47 52 -101 111 -121 132 -20 21 -35 38
-33 38 5 0 -104 117 -173 186 -63 63 -97 78 -168 77 -117 -3 -208 -96 -209
-212 -1 -69 5 -81 166 -326 279 -425 355 -542 370 -572 24 -49 20 -130 -9
-182 -66 -114 -148 -138 -323 -94 -52 13 -107 25 -122 27 -15 3 -36 7 -47 11
-11 3 -28 8 -38 10 -10 2 -49 11 -88 20 -38 9 -81 18 -95 21 -14 3 -61 14
-105 24 -44 11 -91 22 -105 25 -14 2 -47 10 -75 16 -140 31 -160 31 -228 0
-61 -28 -100 -81 -115 -156 -9 -43 5 -135 19 -135 5 0 9 -6 9 -13 0 -17 46
-59 85 -80 38 -19 208 -87 219 -87 4 0 22 -6 39 -14 18 -8 104 -43 192 -76
412 -159 389 -148 434 -214 72 -103 30 -259 -83 -311 -39 -18 -225 -92 -291
-115 -84 -30 -188 -70 -220 -84 -16 -7 -92 -37 -169 -66 -155 -60 -203 -96
-228 -172 -14 -44 -15 -58 -4 -117 13 -68 57 -120 125 -149 50 -22 113 -23
187 -3 46 12 209 50 242 56 13 2 31 6 40 9 9 3 28 7 42 10 14 3 34 7 45 10 11
2 101 23 200 45 271 63 264 61 320 49 49 -11 98 -48 132 -99 20 -31 27 -55 29
-104 3 -56 0 -69 -31 -120 -19 -32 -35 -59 -35 -62 0 -2 -5 -9 -11 -16 -6 -7
-66 -97 -134 -202 -69 -104 -129 -197 -135 -205 -90 -131 -191 -296 -199 -327
-26 -95 21 -198 111 -244 55 -28 102 -32 162 -15 44 13 64 27 117 84 113 121
229 249 252 278 12 16 32 38 43 49 19 17 189 204 264 289 103 118 152 147 236
142 28 -2 65 -12 84 -22 18 -11 41 -23 51 -29 10 -5 29 -32 43 -60 23 -48 27
-72 41 -250 3 -38 8 -95 11 -125 2 -30 7 -86 10 -125 2 -38 6 -90 9 -115 9
-104 16 -189 20 -245 12 -166 15 -193 26 -237 29 -123 176 -189 295 -133 85
39 120 96 129 207 3 35 7 86 10 113 2 28 7 86 10 130 4 44 8 100 11 125 2 25
6 79 9 120 3 41 7 91 10 110 2 19 7 73 10 120 10 150 16 212 28 273 4 22 43
76 70 97 61 48 159 59 230 25 20 -9 73 -58 119 -108 45 -51 97 -108 115 -127
18 -19 42 -47 55 -61 13 -14 58 -63 100 -110 42 -46 85 -93 95 -105 160 -184
253 -278 292 -299 69 -35 162 -24 231 27 37 27 84 120 78 153 -3 14 -2 28 3
31 10 6 -37 117 -51 122 -6 2 -10 8 -10 14 0 5 -10 24 -23 41 -12 18 -27 39
-32 48 -6 10 -25 38 -42 63 -18 26 -33 51 -33 55 0 4 -9 16 -20 26 -11 10 -20
22 -20 26 0 5 -35 62 -78 126 -237 356 -244 368 -247 438 -2 41 19 99 51 141
58 75 153 95 276 58 10 -3 30 -8 45 -10 16 -3 46 -10 68 -15 22 -5 51 -12 65
-15 14 -3 53 -11 86 -19 34 -8 73 -16 85 -19 13 -2 62 -13 109 -24 73 -18 191
-46 240 -57 8 -2 34 -8 57 -13 87 -20 170 -2 218 47 36 36 43 48 58 92 40 119
-19 230 -149 279 -32 11 -62 24 -68 28 -6 3 -15 7 -21 8 -10 2 -149 56 -190
73 -11 5 -47 19 -80 31 -33 12 -75 29 -94 37 -18 8 -39 16 -45 18 -6 1 -24 7
-41 14 -16 6 -73 28 -125 48 -114 45 -166 82 -192 140 -22 49 -25 123 -8 168
28 74 70 106 210 159 119 45 385 147 410 158 14 6 83 32 154 59 199 76 250
126 250 248 0 94 -57 175 -144 204 -49 16 -90 15 -160 -2 -25 -7 -56 -14 -70
-17 -14 -3 -63 -14 -110 -25 -47 -12 -98 -23 -115 -26 -16 -2 -82 -17 -145
-33 -63 -15 -128 -30 -145 -33 -16 -3 -78 -17 -136 -31 -142 -33 -200 -27
-268 29 -38 33 -67 86 -74 137 -6 50 10 121 34 147 11 11 17 21 15 21 -3 0 21
38 54 85 33 47 60 88 60 90 0 8 234 360 245 367 6 5 6 8 0 8 -6 0 -6 3 0 8 10
7 49 64 110 161 35 56 43 141 19 201 -24 59 -92 115 -155 128 -98 19 -153 -6
-250 -113 -34 -39 -68 -75 -73 -81 -13 -12 -138 -152 -166 -184 -10 -11 -54
-60 -97 -107 -43 -47 -98 -109 -123 -137 -25 -27 -66 -72 -91 -98 -25 -26 -44
-48 -42 -48 3 0 -9 -11 -25 -25 -82 -69 -190 -73 -275 -11 -39 28 -80 101 -83
145 -2 20 -5 63 -8 96 -12 125 -31 363 -50 611 -4 45 -9 101 -11 124 -3 24 -7
74 -10 112 -6 82 -23 127 -66 169 -49 48 -135 76 -189 62z"/>
</g>
</svg>
